<svg width="48" height="48" viewBox="0 0 48 48" fill="none" xmlns="http://www.w3.org/2000/svg">
<mask id="mask0_2307_1291" style="mask-type:alpha" maskUnits="userSpaceOnUse" x="0" y="0" width="48" height="48">
<rect width="48" height="48" fill="#D9D9D9"/>
</mask>
<g mask="url(#mask0_2307_1291)">
<path d="M23.988 20.827C22.801 20.827 21.7949 20.4102 20.9695 19.5765C20.1439 18.7432 19.731 17.733 19.731 16.546C19.731 15.359 20.1477 14.3527 20.981 13.527C21.8144 12.7013 22.8247 12.2885 24.012 12.2885C25.199 12.2885 26.2052 12.7052 27.0305 13.5385C27.8562 14.3722 28.269 15.3825 28.269 16.5695C28.269 17.7565 27.8524 18.7628 27.019 19.5885C26.1857 20.4142 25.1754 20.827 23.988 20.827ZM9.90403 28.1155C9.1207 28.1155 8.44403 27.8305 7.87403 27.2605C7.30436 26.6905 7.01953 26.0138 7.01953 25.2305V7.8845C7.01953 7.10117 7.30436 6.42467 7.87403 5.855C8.44403 5.285 9.1207 5 9.90403 5H38.1155C38.8989 5 39.5754 5.285 40.145 5.855C40.715 6.42467 41 7.10117 41 7.8845V25.2305C41 26.0138 40.715 26.6905 40.145 27.2605C39.5754 27.8305 38.8989 28.1155 38.1155 28.1155H9.90403ZM13.6345 25.846H34.3845C34.3845 24.6383 34.8079 23.6122 35.6545 22.7675C36.5009 21.9225 37.5262 21.5 38.7305 21.5V11.6155C37.5229 11.6155 36.4967 11.1922 35.652 10.3455C34.807 9.49917 34.3845 8.47383 34.3845 7.2695H13.6345C13.6345 8.47717 13.2114 9.50333 12.365 10.348C11.5184 11.193 10.4929 11.6155 9.28853 11.6155V21.5C10.4962 21.5 11.5225 21.9232 12.3675 22.7695C13.2122 23.6162 13.6345 24.6417 13.6345 25.846ZM22.8655 38.704L20.306 36.144C20.0867 35.925 19.8282 35.8155 19.5305 35.8155C19.2332 35.8155 18.973 35.927 18.75 36.15C18.527 36.373 18.4155 36.6375 18.4155 36.9435C18.4155 37.2495 18.5255 37.5103 18.7455 37.726L23.008 41.989C23.1617 42.1423 23.3225 42.2523 23.4905 42.319C23.6589 42.3857 23.839 42.419 24.031 42.419C24.223 42.419 24.3992 42.3857 24.5595 42.319C24.7199 42.2523 24.8769 42.1423 25.0305 41.989L29.293 37.726C29.513 37.5103 29.623 37.2495 29.623 36.9435C29.623 36.6375 29.5115 36.373 29.2885 36.15C29.0655 35.927 28.801 35.8155 28.495 35.8155C28.189 35.8155 27.9285 35.925 27.7135 36.144L25.154 38.704V32.75C25.154 32.4283 25.0444 32.1588 24.825 31.9415C24.6057 31.7242 24.3339 31.6155 24.0095 31.6155C23.6852 31.6155 23.4135 31.7242 23.1945 31.9415C22.9752 32.1588 22.8655 32.4283 22.8655 32.75V38.704Z" fill="#007899"/>
</g>
</svg>
