<svg width="28" height="28" viewBox="0 0 28 28" fill="none" xmlns="http://www.w3.org/2000/svg">
<mask id="mask0_2153_1991" style="mask-type:alpha" maskUnits="userSpaceOnUse" x="0" y="0" width="28" height="28">
<rect width="28" height="28" fill="#D9D9D9"/>
</mask>
<g mask="url(#mask0_2153_1991)">
<path d="M15.6605 13.9819L10.4644 8.77474C10.3268 8.64447 10.261 8.49076 10.267 8.31362C10.273 8.13629 10.3449 7.98258 10.4825 7.85249C10.62 7.71483 10.7785 7.646 10.9579 7.646C11.1374 7.646 11.296 7.71483 11.4336 7.85249L16.973 13.3918C17.0628 13.4817 17.129 13.5733 17.1716 13.6669C17.2142 13.7602 17.2355 13.8652 17.2355 13.9819C17.2355 14.0911 17.2142 14.1944 17.1716 14.2916C17.129 14.3888 17.0628 14.4824 16.973 14.5722L11.4156 20.1293C11.2855 20.2596 11.1319 20.3236 10.9547 20.3212C10.7774 20.3189 10.62 20.249 10.4825 20.1115C10.3449 19.9739 10.276 19.8153 10.276 19.6358C10.276 19.4564 10.3449 19.2978 10.4825 19.1601L15.6605 13.9819Z" fill="#838383"/>
</g>
</svg>
