<svg width="16" height="16" viewBox="0 0 16 16" fill="none" xmlns="http://www.w3.org/2000/svg">
<mask id="mask0_2307_1757" style="mask-type:alpha" maskUnits="userSpaceOnUse" x="0" y="0" width="16" height="16">
<rect width="16" height="16" fill="#D9D9D9"/>
</mask>
<g mask="url(#mask0_2307_1757)">
<path d="M8.00065 13.999L7.03398 13.1323C5.91176 12.1212 4.98398 11.249 4.25065 10.5156C3.51732 9.78229 2.93398 9.12396 2.50065 8.54063C2.06732 7.95729 1.76454 7.42118 1.59232 6.93229C1.4201 6.4434 1.33398 5.9434 1.33398 5.43229C1.33398 4.38785 1.68398 3.51563 2.38398 2.81563C3.08398 2.11562 3.95621 1.76562 5.00065 1.76562C5.57843 1.76562 6.12843 1.88785 6.65065 2.13229C7.17287 2.37674 7.62287 2.72118 8.00065 3.16563C8.37843 2.72118 8.82843 2.37674 9.35065 2.13229C9.87287 1.88785 10.4229 1.76562 11.0007 1.76562C12.0451 1.76562 12.9173 2.11562 13.6173 2.81563C14.3173 3.51563 14.6673 4.38785 14.6673 5.43229C14.6673 5.9434 14.5812 6.4434 14.409 6.93229C14.2368 7.42118 13.934 7.95729 13.5007 8.54063C13.0673 9.12396 12.484 9.78229 11.7507 10.5156C11.0173 11.249 10.0895 12.1212 8.96732 13.1323L8.00065 13.999Z" fill="#D20909"/>
</g>
</svg>
