<svg width="48" height="48" viewBox="0 0 48 48" fill="none" xmlns="http://www.w3.org/2000/svg">
<mask id="mask0_2307_1275" style="mask-type:alpha" maskUnits="userSpaceOnUse" x="0" y="0" width="48" height="48">
<rect width="48" height="48" fill="#D9D9D9"/>
</mask>
<g mask="url(#mask0_2307_1275)">
<path d="M11.9471 34.2956V19.4036C11.9471 19.0819 12.0567 18.8124 12.2761 18.5951C12.4954 18.3774 12.7671 18.2686 13.0911 18.2686C13.4154 18.2686 13.6839 18.3774 13.8966 18.5951C14.1096 18.8124 14.2161 19.0819 14.2161 19.4036V34.2956C14.2161 34.6172 14.1064 34.8867 13.8871 35.1041C13.6677 35.3214 13.3959 35.4301 13.0716 35.4301C12.7472 35.4301 12.4787 35.3214 12.2661 35.1041C12.0534 34.8867 11.9471 34.6172 11.9471 34.2956ZM23.0081 34.2956V19.4036C23.0081 19.0819 23.1177 18.8124 23.3371 18.5951C23.5564 18.3774 23.8282 18.2686 24.1526 18.2686C24.4769 18.2686 24.7454 18.3774 24.9581 18.5951C25.1711 18.8124 25.2776 19.0819 25.2776 19.4036V34.2956C25.2776 34.6172 25.1679 34.8867 24.9486 35.1041C24.7292 35.3214 24.4574 35.4301 24.1331 35.4301C23.8087 35.4301 23.5402 35.3214 23.3276 35.1041C23.1146 34.8867 23.0081 34.6172 23.0081 34.2956ZM6.67356 40.9686C6.35223 40.9686 6.0829 40.8589 5.86556 40.6396C5.6479 40.4202 5.53906 40.1486 5.53906 39.8246C5.53906 39.5002 5.6479 39.2316 5.86556 39.0186C6.0829 38.8059 6.35223 38.6996 6.67356 38.6996H41.3276C41.6489 38.6996 41.9182 38.8092 42.1356 39.0286C42.3532 39.2479 42.4621 39.5197 42.4621 39.8441C42.4621 40.1681 42.3532 40.4366 42.1356 40.6496C41.9182 40.8622 41.6489 40.9686 41.3276 40.9686H6.67356ZM33.7851 34.2956V19.4036C33.7851 19.0819 33.8947 18.8124 34.1141 18.5951C34.3334 18.3774 34.6052 18.2686 34.9296 18.2686C35.2539 18.2686 35.5224 18.3774 35.7351 18.5951C35.9477 18.8124 36.0541 19.0819 36.0541 19.4036V34.2956C36.0541 34.6172 35.9444 34.8867 35.7251 35.1041C35.5057 35.3214 35.2341 35.4301 34.9101 35.4301C34.5857 35.4301 34.3172 35.3214 34.1046 35.1041C33.8916 34.8867 33.7851 34.6172 33.7851 34.2956ZM41.5466 14.9996H6.34306C6.1294 14.9996 5.9419 14.9192 5.78056 14.7586C5.61956 14.5979 5.53906 14.4121 5.53906 14.2011V13.5901C5.53906 13.4597 5.5774 13.3287 5.65406 13.1971C5.73073 13.0654 5.83473 12.9676 5.96606 12.9036L22.6351 3.81906C23.0637 3.59073 23.5176 3.47656 23.9966 3.47656C24.4756 3.47656 24.9321 3.59073 25.3661 3.81906L42.0041 12.8536C42.1401 12.9482 42.2504 13.0629 42.3351 13.1976C42.4197 13.3322 42.4621 13.4942 42.4621 13.6836V14.0501C42.4621 14.3267 42.3767 14.5541 42.2061 14.7321C42.0354 14.9104 41.8156 14.9996 41.5466 14.9996ZM11.0276 12.7301H36.9736L24.2701 5.80356C24.1801 5.7649 24.0902 5.74556 24.0006 5.74556C23.9109 5.74556 23.8211 5.7649 23.7311 5.80356L11.0276 12.7301Z" fill="#007899"/>
</g>
</svg>
