<svg width="48" height="48" viewBox="0 0 48 48" fill="none" xmlns="http://www.w3.org/2000/svg">
<mask id="mask0_2307_1283" style="mask-type:alpha" maskUnits="userSpaceOnUse" x="0" y="0" width="48" height="48">
<rect width="48" height="48" fill="#D9D9D9"/>
</mask>
<g mask="url(#mask0_2307_1283)">
<path d="M43 11.8845V36.1155C43 36.8998 42.7153 37.5767 42.146 38.146C41.5767 38.7153 40.8998 39 40.1155 39H7.8845C7.10017 39 6.42333 38.7153 5.854 38.146C5.28467 37.5767 5 36.8998 5 36.1155V11.8845C5 11.1002 5.28467 10.4233 5.854 9.854C6.42333 9.28467 7.10017 9 7.8845 9H40.1155C40.8998 9 41.5767 9.28467 42.146 9.854C42.7153 10.4233 43 11.1002 43 11.8845ZM7.2695 17.1425H40.7305V11.8845C40.7305 11.7308 40.6665 11.5898 40.5385 11.4615C40.4102 11.3335 40.2692 11.2695 40.1155 11.2695H7.8845C7.73083 11.2695 7.58983 11.3335 7.4615 11.4615C7.3335 11.5898 7.2695 11.7308 7.2695 11.8845V17.1425ZM7.2695 22.3805V36.1155C7.2695 36.2692 7.3335 36.4102 7.4615 36.5385C7.58983 36.6665 7.73083 36.7305 7.8845 36.7305H40.1155C40.2692 36.7305 40.4102 36.6665 40.5385 36.5385C40.6665 36.4102 40.7305 36.2692 40.7305 36.1155V22.3805H7.2695Z" fill="#007899"/>
</g>
</svg>
