<svg width="40" height="40" viewBox="0 0 40 40" fill="none" xmlns="http://www.w3.org/2000/svg">
<g clip-path="url(#clip0_2269_234)">
<path d="M20 40C31.0457 40 40 31.0457 40 20C40 8.9543 31.0457 0 20 0C8.9543 0 0 8.9543 0 20C0 31.0457 8.9543 40 20 40Z" fill="#007899"/>
<path d="M26.2505 12.3172L17.4679 22.8388L13.6481 18.8817C12.8318 18.0363 11.4844 18.0122 10.6384 18.8285C9.79295 19.6448 9.76886 20.9922 10.5852 21.8382L14.7238 26.1258L16.5138 27.9803C17.1457 28.6346 18.2057 28.5966 18.789 27.8979L20.4412 25.9191L29.5179 15.0451C30.2708 14.1425 30.1504 12.8007 29.2478 12.0472C28.3452 11.2942 27.0034 11.4146 26.2499 12.3172H26.2505Z" fill="white"/>
</g>
<defs>
<clipPath id="clip0_2269_234">
<rect width="40" height="40" fill="white"/>
</clipPath>
</defs>
</svg>
