<svg width="16" height="16" viewBox="0 0 16 16" fill="none" xmlns="http://www.w3.org/2000/svg">
<mask id="mask0_2174_177" style="mask-type:alpha" maskUnits="userSpaceOnUse" x="0" y="0" width="16" height="16">
<rect width="16" height="16" fill="#D9D9D9"/>
</mask>
<g mask="url(#mask0_2174_177)">
<path d="M7.99967 14L7.03301 13.1333C5.91079 12.1222 4.98301 11.25 4.24967 10.5167C3.51634 9.78333 2.93301 9.125 2.49967 8.54166C2.06634 7.95833 1.76356 7.42222 1.59134 6.93333C1.41912 6.44444 1.33301 5.94444 1.33301 5.43333C1.33301 4.38888 1.68301 3.51666 2.38301 2.81666C3.08301 2.11666 3.95523 1.76666 4.99967 1.76666C5.57745 1.76666 6.12745 1.88888 6.64967 2.13333C7.1719 2.37777 7.6219 2.72222 7.99967 3.16666C8.37745 2.72222 8.82745 2.37777 9.34967 2.13333C9.8719 1.88888 10.4219 1.76666 10.9997 1.76666C12.0441 1.76666 12.9163 2.11666 13.6163 2.81666C14.3163 3.51666 14.6663 4.38888 14.6663 5.43333C14.6663 5.94444 14.5802 6.44444 14.408 6.93333C14.2358 7.42222 13.933 7.95833 13.4997 8.54166C13.0663 9.125 12.483 9.78333 11.7497 10.5167C11.0163 11.25 10.0886 12.1222 8.96634 13.1333L7.99967 14Z" fill="#D20909"/>
</g>
</svg>
