<svg width="12" height="12" viewBox="0 0 12 12" fill="none" xmlns="http://www.w3.org/2000/svg">
<path fill-rule="evenodd" clip-rule="evenodd" d="M6.20675 0.881966C6.48241 0.594683 6.92934 0.594683 7.20501 0.881966L11.6167 5.47967C11.8924 5.76695 11.8924 6.23273 11.6167 6.52001L7.20501 11.1177C6.92934 11.405 6.48241 11.405 6.20675 11.1177C5.93108 10.8304 5.93108 10.3646 6.20675 10.0774L10.1193 5.99984L6.20675 1.92231C5.93108 1.63502 5.93108 1.16925 6.20675 0.881966Z" fill="#46474C"/>
<path fill-rule="evenodd" clip-rule="evenodd" d="M0.873494 0.881966C1.14916 0.594683 1.59609 0.594683 1.87175 0.881966L6.28348 5.47967C6.55914 5.76695 6.55914 6.23273 6.28348 6.52001L1.87175 11.1177C1.59609 11.405 1.14916 11.405 0.873494 11.1177C0.597833 10.8304 0.597833 10.3646 0.873494 10.0774L4.78609 5.99984L0.873494 1.92231C0.597833 1.63502 0.597833 1.16925 0.873494 0.881966Z" fill="#46474C"/>
</svg>
