<svg width="24" height="24" viewBox="0 0 24 24" fill="none" xmlns="http://www.w3.org/2000/svg">
<mask id="mask0_2152_525" style="mask-type:alpha" maskUnits="userSpaceOnUse" x="0" y="0" width="24" height="24">
<rect width="24" height="24" fill="#D9D9D9"/>
</mask>
<g mask="url(#mask0_2152_525)">
<path d="M9.61966 15.2154C8.06149 15.2154 6.73591 14.6689 5.64291 13.5761C4.55008 12.4831 4.00366 11.1578 4.00366 9.60011C4.00366 8.04245 4.55008 6.71711 5.64291 5.62411C6.73591 4.53128 8.06124 3.98486 9.61891 3.98486C11.1766 3.98486 12.5019 4.53128 13.5949 5.62411C14.6877 6.71711 15.2342 8.0427 15.2342 9.60086C15.2342 10.2547 15.1268 10.8799 14.9122 11.4764C14.6973 12.073 14.4066 12.6117 14.0399 13.0924L19.5439 18.5964C19.6824 18.7347 19.7532 18.8837 19.7564 19.0434C19.7596 19.203 19.6887 19.3553 19.5439 19.5001C19.3991 19.6449 19.2442 19.7174 19.0794 19.7174C18.9147 19.7174 18.76 19.6449 18.6152 19.5001L13.1112 14.0211C12.6112 14.4006 12.0629 14.6945 11.4664 14.9029C10.8699 15.1112 10.2543 15.2154 9.61966 15.2154ZM9.61891 13.9156C10.8241 13.9156 11.8446 13.4976 12.6804 12.6616C13.5164 11.8258 13.9344 10.8053 13.9344 9.60011C13.9344 8.39495 13.5164 7.37445 12.6804 6.53861C11.8446 5.70261 10.8241 5.28461 9.61891 5.28461C8.41374 5.28461 7.39325 5.70261 6.55741 6.53861C5.72141 7.37445 5.30341 8.39495 5.30341 9.60011C5.30341 10.8053 5.72141 11.8258 6.55741 12.6616C7.39325 13.4976 8.41374 13.9156 9.61891 13.9156Z" fill="#1C1B1F"/>
</g>
</svg>
