<svg width="116" height="34" viewBox="0 0 116 34" fill="none" xmlns="http://www.w3.org/2000/svg">
<g clip-path="url(#clip0_2153_2042)">
<path d="M74.2604 7.60364H77.3991V10.4628H78.378V7.60364H81.5083V6.74968H74.2604V7.60364ZM91.8642 7.35185L91.8168 7.31898L90.4085 7.47661V7.69452L90.6023 7.73429C90.8379 7.78086 90.8839 7.83435 90.8839 8.2977L90.8853 9.69852C90.8852 9.7799 90.9014 9.8605 90.9331 9.9357C90.9647 10.0109 91.0111 10.0792 91.0697 10.1368C91.1282 10.1943 91.1977 10.2399 91.2742 10.271C91.3507 10.3021 91.4327 10.3181 91.5155 10.318H96.234V9.4737H91.8641L91.8642 7.35185ZM90.7122 4.46613C90.7122 3.78351 91.0663 3.14474 91.8471 3.14474C92.6545 3.14474 92.9752 3.78351 92.9752 4.46613C92.9752 5.14875 92.6378 5.77924 91.8471 5.77924C91.0663 5.77924 90.7122 5.14875 90.7122 4.46613ZM93.9959 4.46613C93.9959 3.30656 93.1564 2.29906 91.8471 2.29906C90.5392 2.29906 89.6998 3.30656 89.6998 4.46613C89.6998 5.63533 90.5058 6.63319 91.8471 6.63319C93.1816 6.63319 93.9959 5.63533 93.9959 4.46613ZM98.8946 2.65657C97.4068 4.87157 97.4068 7.54029 98.8946 9.75529H99.5862C98.2559 7.44567 98.249 4.9867 99.5862 2.65657H98.8946ZM102.977 3.61342C103.833 3.61342 104.406 3.93694 104.406 4.4906C104.406 5.07316 103.819 5.38297 102.977 5.38297C102.135 5.38297 101.555 5.08008 101.555 4.49752C101.555 3.93003 102.114 3.61342 102.977 3.61342ZM102.977 6.03681C104.433 6.03681 105.196 5.45425 105.196 4.49752C105.196 3.54078 104.433 2.95142 102.977 2.95142C101.555 2.95142 100.771 3.54906 100.771 4.49752C100.771 5.45425 101.555 6.03681 102.977 6.03681ZM100.027 7.27366H101.515V9.53251H102.292V7.27366H103.662V9.6107H104.439V7.27366H105.927V6.59104H100.027V7.27366ZM111.149 2.80083L111.111 2.77476L109.994 2.89953V3.07222L110.149 3.10372C110.331 3.13942 110.37 3.18327 110.372 3.52594V7.8203H111.149V5.69165H112.124V5.00767H111.149L111.149 2.80083ZM108.128 7.43491L108.091 7.40885L106.974 7.53361V7.7063L107.129 7.7378C107.314 7.77486 107.352 7.81735 107.352 8.18461V9.00015C107.352 9.13155 107.405 9.25761 107.499 9.35064C107.593 9.44368 107.722 9.49609 107.855 9.49636H111.359V8.8193H108.128V7.43491ZM107.185 5.72768C107.185 5.31781 107.462 5.0369 108.021 5.0369C108.568 5.0369 108.832 5.31793 108.832 5.72768C108.832 6.15942 108.568 6.44588 108.021 6.44588C107.462 6.44588 107.185 6.14435 107.185 5.72768ZM109.608 5.73448C109.608 4.95044 109.022 4.39666 108.021 4.39666C107.04 4.39666 106.401 4.92846 106.401 5.73448C106.401 6.49653 107.034 7.10108 108.014 7.10108C109.022 7.10108 109.608 6.47466 109.608 5.73448ZM109.911 3.55551H108.397V2.79346L108.359 2.7674L107.242 2.89216V3.06485L107.396 3.09636C107.581 3.13205 107.619 3.17443 107.619 3.53364V3.55563H106.106V4.20255H109.911V3.55551ZM112.545 2.65657C113.882 4.9867 113.875 7.44579 112.545 9.75529H113.237C114.724 7.54029 114.724 4.87157 113.237 2.65657H112.545ZM85.0154 5.40122H83.1972V4.40335H85.0154V5.40122ZM85.9622 2.27334L85.9162 2.24184L84.5456 2.39402V2.60649L84.7352 2.6449C84.9639 2.69012 85.0099 2.74224 85.0085 3.19313V3.57693H83.1972V2.27345H83.1958L83.1972 2.27209L83.1512 2.24059L81.8028 2.39141V2.60116L81.9883 2.63822C82.2128 2.68343 82.2589 2.7342 82.2575 3.17828L82.2589 5.60847C82.2588 5.68985 82.275 5.77045 82.3067 5.84565C82.3383 5.92085 82.3847 5.98918 82.4432 6.04672C82.5018 6.10427 82.5713 6.1499 82.6478 6.181C82.7243 6.2121 82.8063 6.22806 82.8891 6.22797H85.9623V2.27334H85.9622ZM76.3308 3.18055H79.4472V4.94183H76.3308V3.18055ZM75.3756 3.16129V5.15838C75.3755 5.23976 75.3918 5.32035 75.4234 5.39556C75.455 5.47076 75.5014 5.53909 75.56 5.59663C75.6185 5.65418 75.688 5.6998 75.7645 5.73091C75.841 5.76201 75.923 5.77797 76.0058 5.77788H80.4023V2.34439H75.0549V2.56094L75.186 2.60071C75.3436 2.64592 75.3756 2.69805 75.3756 3.16129ZM95.0985 2.88695V8.06268H96.0703V1.94937L96.023 1.9165L94.6272 2.07277V2.28932L94.8196 2.32909C95.0525 2.3743 95.0985 2.42643 95.0985 2.88695ZM86.9303 2.07333V2.28988L87.1227 2.3283C87.3556 2.37487 87.403 2.427 87.4016 2.88751V3.73875H86.2499V4.57355H87.403V6.45279H88.3735V1.94993L88.3275 1.91707L86.9303 2.07333ZM69.8317 5.40122H68.0135V4.40335H69.8317V5.40122ZM70.7785 2.27334L70.7325 2.24048L69.3632 2.39402V2.60513L69.5529 2.6449C69.7718 2.6874 69.822 2.74496 69.8248 3.15199C69.8262 3.16843 69.8248 3.57693 69.8248 3.57693H68.0135V2.27345L67.9675 2.24195L66.6191 2.39277V2.60116L66.8046 2.63958C67.0306 2.68343 67.0752 2.75335 67.0752 3.19743V5.60847C67.0751 5.68985 67.0913 5.77045 67.123 5.84565C67.1546 5.92085 67.201 5.98918 67.2595 6.04672C67.3181 6.10427 67.3876 6.1499 67.4641 6.181C67.5406 6.2121 67.6226 6.22806 67.7054 6.22797H70.7786V2.27334H70.7785ZM71.7464 2.07333V2.28988L71.9388 2.3283C72.1717 2.37487 72.2191 2.427 72.2177 2.88751V3.73875H71.066V4.57355H72.219V6.45279H73.1895V1.94993L73.1435 1.91707L71.7464 2.07333ZM69.3162 9.5809V8.77216H72.2095L72.2109 9.5809H69.3162ZM71.7382 6.97258V7.18912L71.9306 7.22754C72.1635 7.27411 72.2109 7.32624 72.2095 7.78676V7.93611H69.3162V6.84917L69.2688 6.81631L67.8717 6.97258V7.18912L68.0655 7.22754C68.2983 7.27411 68.3443 7.32624 68.3443 7.78676V9.78929C68.3446 9.95351 68.4111 10.1109 68.5292 10.227C68.6473 10.3432 68.8075 10.4085 68.9745 10.4088H73.1814V6.84917L73.1354 6.81631L71.7382 6.97258ZM84.5003 9.5809V8.77216H87.3935L87.3949 9.5809H84.5003ZM86.9223 6.97258V7.18912L87.1147 7.22754C87.3475 7.27411 87.3949 7.32624 87.3935 7.78676L87.3949 7.93611H84.5003V6.84917L84.4529 6.81631L83.0558 6.97258V7.18912L83.2495 7.22754C83.4824 7.27411 83.5284 7.32624 83.5284 7.78676V9.78929C83.5287 9.95351 83.5951 10.1109 83.7133 10.227C83.8314 10.3432 83.9915 10.4085 84.1586 10.4088H88.3654V6.84917L88.3194 6.81631L86.9223 6.97258ZM94.8015 25.6328H96.8651L96.8665 14.7249L96.7675 14.6563L93.7989 14.988V15.4472L94.2088 15.5308C94.6996 15.6281 94.8 15.7406 94.8014 16.6987V17.4553H92.615V19.1947H94.8014V20.5887H92.615V22.3281H94.8014V25.6328H94.8015ZM83.2574 15.7744H92.4574V17.5508H83.2574V15.7744ZM91.3549 31.402C89.0821 31.402 87.8048 30.581 87.8048 29.3584C87.8048 28.0974 89.0821 27.3134 91.3549 27.3134C93.5427 27.3134 94.8534 28.0782 94.8534 29.3584C94.8534 30.6002 93.5427 31.402 91.3549 31.402ZM91.3382 25.5753C87.3852 25.5753 85.6533 27.1996 85.6533 29.3392C85.6533 31.6132 87.3851 33.1223 91.3382 33.1223C95.2564 33.1223 97.0231 31.6324 97.0231 29.3392C97.023 27.0845 95.2564 25.5753 91.3382 25.5753ZM114.268 18.8123V17.036H111.997V14.725L111.898 14.6565L108.929 14.9881V15.4473L109.339 15.5309C109.834 15.6283 109.932 15.7393 109.932 16.7166L109.933 25.0599H111.997V22.5379H114.268V20.7614H111.997V18.8122L114.268 18.8123ZM106.698 31.403C104.475 31.403 103.216 30.5422 103.216 29.3004C103.216 27.9639 104.475 27.1223 106.698 27.1223C108.919 27.1223 110.178 27.9639 110.178 29.3004C110.178 30.619 108.919 31.403 106.698 31.403ZM106.679 25.3844C102.779 25.3844 101.064 27.0278 101.064 29.2812C101.064 31.5935 102.779 33.1218 106.679 33.1218C110.632 33.1218 112.295 31.5744 112.295 29.2812C112.295 26.9894 110.632 25.3844 106.679 25.3844ZM101.03 19.7866C101.03 18.3913 101.817 17.0932 103.514 17.0932C105.123 17.0932 105.98 18.3913 105.98 19.7866C105.98 21.1998 105.141 22.4225 103.514 22.4225C101.8 22.4224 101.03 21.1628 101.03 19.7866ZM108.044 19.7866C108.044 17.4181 106.312 15.3155 103.514 15.3155C100.697 15.3155 98.9652 17.3989 98.9652 19.7866C98.9652 22.1552 100.645 24.2386 103.514 24.2386C106.451 24.2386 108.044 22.1552 108.044 19.7866Z" fill="#ACACAC"/>
<path d="M93.3663 22.6716C92.5524 22.7702 91.7359 22.8465 90.9178 22.9005L91.0572 18.6021H88.9936L88.8541 23.0349C88.2057 23.0733 87.5421 23.0925 86.842 23.1116L86.7193 18.6021H84.6557L84.83 23.1678H82.8709V24.9457C86.842 24.9457 90.4799 24.8497 93.3663 24.4097V22.6716ZM80.4809 14.6561L77.5486 14.9836V15.4374L77.953 15.521C78.4424 15.617 78.5401 15.7266 78.5386 16.6916L78.5497 21.1051H76.9573V14.8206L76.956 14.8219L76.9573 14.8192L76.8611 14.752L73.9482 15.0769V15.5279L74.3498 15.6102C74.835 15.7062 74.9327 15.824 74.9313 16.7835L74.9466 26.3782H69.1391V22.7678H73.2497V21.0093H69.1391V17.7621H73.424V15.9856H66.3922V16.4448L66.6697 16.5284C67.0071 16.6257 67.0741 16.7368 67.0741 17.7196L67.0755 26.9141C67.0755 27.6419 67.675 28.2313 68.414 28.2313H74.9466V32.2241H76.9573V22.9583H78.5497V32.8163H80.5786V14.7246L80.4809 14.6561ZM12.2915 31.3785C10.6755 31.3772 9.06081 30.2313 9.06081 28.6057L9.06635 19.3727C9.06635 18.1542 10.2697 17.5265 11.434 17.5278C14.8906 17.5292 16.2794 21.5837 16.278 24.8706C16.2766 27.3816 15.5976 31.3799 12.2915 31.3785ZM14.6298 14.1312C12.4128 14.1298 10.5332 15.4223 9.10542 16.8986H9.06773L9.07614 1.0576L8.81401 0.872559L8.81263 0.873918V0.872559L0.923258 1.75529L0.921875 2.4242L2.01225 2.6463C3.32719 2.90535 3.58932 3.20144 3.58794 5.82359L3.57537 28.6193C3.57399 31.24 3.31186 31.4265 1.99554 31.7952L1.02366 32.0392V32.7067H7.20213C8.3845 32.9205 9.69667 33.0754 11.0506 33.0768C17.6626 33.0795 21.6477 29.0922 21.6519 22.6295C21.6533 18.3817 19.2884 14.134 14.6298 14.1312ZM31.5685 28.6186L31.5838 1.05828L31.3203 0.873238L23.4296 1.75597V2.42352L24.5186 2.64562C25.8336 2.90467 26.0971 3.20076 26.0957 5.82291L26.0831 28.6187C26.0817 31.2408 25.8182 31.4272 24.5033 31.796L23.5314 32.0386V32.7075H34.116V32.0386L33.1441 31.796C31.8292 31.4258 31.5671 31.2407 31.5685 28.6186Z" fill="#ACACAC"/>
<path d="M44.5887 31.7669C43.4523 31.431 42.9098 30.5045 41.1572 27.955L36.2797 20.8316C36.2797 20.8316 37.5193 19.7076 38.7073 18.6261C40.5129 16.9854 41.9436 16.0575 43.2739 15.675L44.526 15.3296V14.6607L35.4487 14.6553V15.3242L36.6994 15.6709C38.0715 16.0795 38.296 16.8936 35.9451 19.0483L31.7773 22.8479L38.1789 32.6976H38.9945L45.5258 32.7016V32.0327L44.5887 31.7669ZM55.6516 31.7957C54.3366 31.4256 54.0745 31.2405 54.076 28.6184L54.0898 1.05809L53.8263 0.873047L45.9371 1.75578L45.9357 2.42333L47.0261 2.64543C48.3409 2.90583 48.6031 3.20057 48.6016 5.79801L48.5891 30.5086C48.5877 31.7313 49.5749 32.7072 50.7936 32.7072H56.6234V32.0383L55.6516 31.7957Z" fill="#ACACAC"/>
</g>
<defs>
<clipPath id="clip0_2153_2042">
<rect width="115.274" height="33.995" fill="white"/>
</clipPath>
</defs>
</svg>
