<svg width="116" height="35" viewBox="0 0 116 35" fill="none" xmlns="http://www.w3.org/2000/svg">
<path d="M74.2585 8.10412H77.3972V10.9633H78.3761V8.10412H81.5064V7.25017H74.2585V8.10412ZM91.8623 7.85233L91.8149 7.81947L90.4066 7.9771V8.195L90.6003 8.23478C90.836 8.28135 90.882 8.33484 90.882 8.79819L90.8833 10.199C90.8833 10.2804 90.8995 10.361 90.9311 10.4362C90.9628 10.5114 91.0092 10.5797 91.0677 10.6373C91.1263 10.6948 91.1958 10.7404 91.2723 10.7715C91.3488 10.8026 91.4308 10.8186 91.5135 10.8185H96.2321V9.97419H91.8621L91.8623 7.85233ZM90.7102 4.96662C90.7102 4.284 91.0643 3.64523 91.8452 3.64523C92.6526 3.64523 92.9733 4.284 92.9733 4.96662C92.9733 5.64923 92.6359 6.27973 91.8452 6.27973C91.0643 6.27973 90.7102 5.64923 90.7102 4.96662ZM93.9939 4.96662C93.9939 3.80705 93.1545 2.79955 91.8452 2.79955C90.5373 2.79955 89.6979 3.80705 89.6979 4.96662C89.6979 6.13582 90.5039 7.13368 91.8452 7.13368C93.1796 7.13368 93.9939 6.13582 93.9939 4.96662ZM98.8926 3.15706C97.4049 5.37206 97.4049 8.04078 98.8926 10.2558H99.5842C98.254 7.94616 98.2471 5.48719 99.5842 3.15706H98.8926ZM102.975 4.11391C103.831 4.11391 104.404 4.43743 104.404 4.99109C104.404 5.57365 103.817 5.88346 102.975 5.88346C102.133 5.88346 101.553 5.58056 101.553 4.998C101.553 4.43051 102.112 4.11391 102.975 4.11391ZM102.975 6.5373C104.431 6.5373 105.194 5.95474 105.194 4.998C105.194 4.04127 104.431 3.45191 102.975 3.45191C101.553 3.45191 100.769 4.04954 100.769 4.998C100.769 5.95474 101.553 6.5373 102.975 6.5373ZM100.025 7.77415H101.513V10.033H102.29V7.77415H103.66V10.1112H104.437V7.77415H105.925V7.09153H100.025V7.77415ZM111.147 3.30131L111.109 3.27525L109.992 3.40001V3.57271L110.147 3.60421C110.329 3.6399 110.368 3.68376 110.37 4.02643V8.32079H111.147V6.19213H112.122V5.50816H111.147L111.147 3.30131ZM108.127 7.9354L108.089 7.90933L106.972 8.03409V8.20679L107.127 8.23829C107.312 8.27535 107.35 8.31784 107.35 8.6851V9.50064C107.35 9.63203 107.403 9.75809 107.497 9.85113C107.591 9.94417 107.72 9.99658 107.853 9.99685H111.357V9.31978H108.127V7.9354ZM107.183 6.22817C107.183 5.8183 107.46 5.53739 108.019 5.53739C108.566 5.53739 108.83 5.81842 108.83 6.22817C108.83 6.6599 108.566 6.94637 108.019 6.94637C107.46 6.94637 107.183 6.64483 107.183 6.22817ZM109.606 6.23497C109.606 5.45093 109.02 4.89715 108.019 4.89715C107.038 4.89715 106.399 5.42895 106.399 6.23497C106.399 6.99702 107.032 7.60157 108.012 7.60157C109.02 7.60157 109.606 6.97515 109.606 6.23497ZM109.909 4.056H108.395V3.29395L108.357 3.26789L107.24 3.39265V3.56534L107.394 3.59684C107.579 3.63254 107.617 3.67492 107.617 4.03413V4.05612H106.104V4.70304H109.909V4.056ZM112.543 3.15706C113.88 5.48719 113.873 7.94627 112.543 10.2558H113.235C114.723 8.04078 114.723 5.37206 113.235 3.15706H112.543ZM85.0135 5.9017H83.1952V4.90384H85.0135V5.9017ZM85.9602 2.77383L85.9142 2.74232L84.5436 2.89451V3.10698L84.7332 3.14539C84.9619 3.1906 85.0079 3.24273 85.0065 3.69362V4.07742H83.1952V2.77394H83.1939L83.1952 2.77258L83.1492 2.74108L81.8009 2.8919V3.10165L81.9864 3.13871C82.2108 3.18392 82.2569 3.23468 82.2555 3.67877L82.2569 6.10896C82.2568 6.19034 82.2731 6.27094 82.3047 6.34614C82.3363 6.42134 82.3828 6.48967 82.4413 6.54721C82.4998 6.60476 82.5693 6.65039 82.6458 6.68149C82.7223 6.71259 82.8043 6.72855 82.8871 6.72846H85.9603V2.77383H85.9602ZM76.3288 3.68104H79.4453V5.44232H76.3288V3.68104ZM75.3736 3.66177V5.65887C75.3736 5.74025 75.3898 5.82084 75.4214 5.89604C75.4531 5.97125 75.4995 6.03958 75.558 6.09712C75.6166 6.15466 75.6861 6.20029 75.7626 6.23139C75.8391 6.26249 75.9211 6.27846 76.0039 6.27837H80.4003V2.84488H75.053V3.06142L75.184 3.1012C75.3416 3.14641 75.3736 3.19854 75.3736 3.66177ZM95.0965 3.38744V8.56317H96.0684V2.44985L96.021 2.41699L94.6253 2.57326V2.7898L94.8177 2.82958C95.0505 2.87479 95.0965 2.92692 95.0965 3.38744ZM86.9284 2.57382V2.79037L87.1208 2.82878C87.3536 2.87536 87.401 2.92748 87.3996 3.388V4.23924H86.2479V5.07404H87.401V6.95328H88.3715V2.45042L88.3255 2.41756L86.9284 2.57382ZM69.8298 5.9017H68.0115V4.90384H69.8298V5.9017ZM70.7765 2.77383L70.7305 2.74096L69.3613 2.89451V3.10562L69.5509 3.14539C69.7698 3.18788 69.8201 3.24545 69.8229 3.65248C69.8242 3.66891 69.8229 4.07742 69.8229 4.07742H68.0115V2.77394L67.9656 2.74244L66.6172 2.89326V3.10165L66.8027 3.14007C67.0286 3.18392 67.0732 3.25384 67.0732 3.69792V6.10896C67.0731 6.19034 67.0894 6.27094 67.121 6.34614C67.1526 6.42134 67.1991 6.48967 67.2576 6.54721C67.3161 6.60476 67.3856 6.65039 67.4621 6.68149C67.5386 6.71259 67.6206 6.72855 67.7034 6.72846H70.7766V2.77383H70.7765ZM71.7445 2.57382V2.79037L71.9369 2.82878C72.1697 2.87536 72.2171 2.92748 72.2157 3.388V4.23924H71.064V5.07404H72.2171V6.95328H73.1876V2.45042L73.1416 2.41756L71.7445 2.57382ZM69.3143 10.0814V9.27264H72.2075L72.2089 10.0814H69.3143ZM71.7363 7.47306V7.68961L71.9287 7.72803C72.1615 7.7746 72.2089 7.82673 72.2075 8.28724V8.4366H69.3143V7.34966L69.2669 7.3168L67.8698 7.47306V7.68961L68.0635 7.72803C68.2964 7.7746 68.3424 7.82673 68.3424 8.28724V10.2898C68.3427 10.454 68.4091 10.6114 68.5273 10.7275C68.6454 10.8437 68.8055 10.909 68.9726 10.9093H73.1794V7.34966L73.1334 7.3168L71.7363 7.47306ZM84.4983 10.0814V9.27264H87.3916L87.393 10.0814H84.4983ZM86.9203 7.47306V7.68961L87.1127 7.72803C87.3456 7.7746 87.393 7.82673 87.3916 8.28724L87.393 8.4366H84.4983V7.34966L84.4509 7.3168L83.0538 7.47306V7.68961L83.2476 7.72803C83.4804 7.7746 83.5264 7.82673 83.5264 8.28724V10.2898C83.5267 10.454 83.5932 10.6114 83.7113 10.7275C83.8294 10.8437 83.9896 10.909 84.1566 10.9093H88.3634V7.34966L88.3175 7.3168L86.9203 7.47306ZM94.7996 26.1332H96.8632L96.8646 15.2254L96.7656 15.1568L93.7969 15.4885V15.9477L94.2068 16.0313C94.6977 16.1286 94.7981 16.241 94.7994 17.1991V17.9558H92.613V19.6952H94.7994V21.0892H92.613V22.8286H94.7994V26.1332H94.7996ZM83.2554 16.2749H92.4555V18.0513H83.2554V16.2749ZM91.353 31.9025C89.0801 31.9025 87.8029 31.0814 87.8029 29.8589C87.8029 28.5979 89.0801 27.8138 91.353 27.8138C93.5408 27.8138 94.8514 28.5787 94.8514 29.8589C94.8514 31.1007 93.5408 31.9025 91.353 31.9025ZM91.3363 26.0758C87.3833 26.0758 85.6514 27.7001 85.6514 29.8397C85.6514 32.1136 87.3832 33.6228 91.3363 33.6228C95.2544 33.6228 97.0211 32.1329 97.0211 29.8397C97.021 27.5849 95.2544 26.0758 91.3363 26.0758ZM114.266 19.3128V17.5365H111.995V15.2255L111.896 15.1569L108.927 15.4886V15.9478L109.337 16.0314C109.832 16.1288 109.93 16.2398 109.93 17.217L109.931 25.5604H111.995V23.0383H114.266V21.2619H111.995V19.3127L114.266 19.3128ZM106.696 31.9034C104.473 31.9034 103.214 31.0427 103.214 29.8008C103.214 28.4644 104.473 27.6228 106.696 27.6228C108.917 27.6228 110.176 28.4644 110.176 29.8008C110.176 31.1195 108.917 31.9034 106.696 31.9034ZM106.678 25.8849C102.777 25.8849 101.062 27.5283 101.062 29.7817C101.062 32.094 102.777 33.6223 106.678 33.6223C110.631 33.6223 112.293 32.0749 112.293 29.7817C112.293 27.4899 110.631 25.8849 106.678 25.8849ZM101.028 20.2871C101.028 18.8917 101.815 17.5937 103.512 17.5937C105.121 17.5937 105.978 18.8917 105.978 20.2871C105.978 21.7003 105.139 22.923 103.512 22.923C101.798 22.9229 101.028 21.6632 101.028 20.2871ZM108.042 20.2871C108.042 17.9186 106.31 15.816 103.512 15.816C100.695 15.816 98.9633 17.8994 98.9633 20.2871C98.9633 22.6557 100.643 24.7391 103.512 24.7391C106.45 24.7391 108.042 22.6557 108.042 20.2871Z" fill="#007899"/>
<path d="M93.3663 23.1721C92.5524 23.2707 91.7359 23.347 90.9178 23.401L91.0572 19.1026H88.9936L88.8541 23.5354C88.2057 23.5738 87.5421 23.593 86.842 23.6121L86.7193 19.1026H84.6557L84.83 23.6683H82.8709V25.4461C86.842 25.4461 90.4799 25.3502 93.3663 24.9102V23.1721ZM80.4809 15.1565L77.5486 15.4841V15.9379L77.953 16.0215C78.4424 16.1175 78.5401 16.227 78.5386 17.192L78.5497 21.6056H76.9573V15.3211L76.956 15.3224L76.9573 15.3197L76.8611 15.2525L73.9482 15.5774V16.0284L74.3498 16.1107C74.835 16.2066 74.9327 16.3245 74.9313 17.2839L74.9466 26.8787H69.1391V23.2683H73.2497V21.5097H69.1391V18.2625H73.424V16.4861H66.3922V16.9452L66.6697 17.0289C67.0071 17.1262 67.0741 17.2373 67.0741 18.2201L67.0755 27.4146C67.0755 28.1424 67.675 28.7318 68.414 28.7318H74.9466V32.7246H76.9573V23.4588H78.5497V33.3168H80.5786V15.2251L80.4809 15.1565ZM12.2915 31.879C10.6755 31.8776 9.06081 30.7318 9.06081 29.1062L9.06635 19.8732C9.06635 18.6547 10.2697 18.027 11.434 18.0283C14.8906 18.0297 16.2794 22.0841 16.278 25.3711C16.2766 27.8821 15.5976 31.8804 12.2915 31.879ZM14.6298 14.6317C12.4128 14.6303 10.5332 15.9228 9.10542 17.3991H9.06773L9.07614 1.55809L8.81401 1.37305L8.81263 1.37441V1.37305L0.923258 2.25578L0.921875 2.92469L2.01225 3.14679C3.32719 3.40583 3.58932 3.70193 3.58794 6.32408L3.57537 29.1197C3.57399 31.7405 3.31186 31.9269 1.99554 32.2957L1.02366 32.5396V33.2072H7.20213C8.3845 33.421 9.69667 33.5759 11.0506 33.5773C17.6626 33.58 21.6477 29.5927 21.6519 23.1299C21.6533 18.8822 19.2884 14.6345 14.6298 14.6317ZM31.5685 29.1191L31.5838 1.55877L31.3203 1.37373L23.4296 2.25646V2.92401L24.5186 3.14611C25.8336 3.40515 26.0971 3.70125 26.0957 6.3234L26.0831 29.1192C26.0817 31.7413 25.8182 31.9277 24.5033 32.2965L23.5314 32.5391V33.208H34.116V32.5391L33.1441 32.2965C31.8292 31.9263 31.5671 31.7412 31.5685 29.1191Z" fill="#007899"/>
<path d="M44.5887 32.2676C43.4523 31.9317 42.9098 31.0053 41.1572 28.4558L36.2797 21.3323C36.2797 21.3323 37.5193 20.2084 38.7073 19.1269C40.5129 17.4862 41.9436 16.5582 43.2739 16.1758L44.526 15.8304V15.1615L35.4487 15.156V15.8249L36.6994 16.1717C38.0715 16.5802 38.296 17.3944 35.9451 19.5491L31.7773 23.3486L38.1789 33.1983H38.9945L45.5258 33.2024V32.5335L44.5887 32.2676ZM55.6516 32.2964C54.3366 31.9263 54.0745 31.7413 54.076 29.1191L54.0898 1.55883L53.8263 1.37378L45.9371 2.25652L45.9357 2.92406L47.0261 3.14616C48.3409 3.40657 48.6031 3.7013 48.6016 6.29874L48.5891 31.0094C48.5877 32.232 49.5749 33.2079 50.7936 33.2079H56.6234V32.539L55.6516 32.2964Z" fill="#007899"/>
</svg>
