<svg width="1920" height="551" viewBox="0 0 1920 551" fill="none" xmlns="http://www.w3.org/2000/svg">
<g clip-path="url(#clip0_2153_1941)">
<rect width="1920" height="551" fill="url(#paint0_linear_2153_1941)"/>
<g opacity="0.05">
<mask id="mask0_2153_1941" style="mask-type:alpha" maskUnits="userSpaceOnUse" x="-78" y="305" width="336" height="199">
<rect x="-78" y="305" width="336" height="199" fill="#D9D9D9"/>
</mask>
<g mask="url(#mask0_2153_1941)">
<path d="M475.198 441.717C470.376 442.311 465.538 442.771 460.69 443.097L461.517 417.176H449.29L448.463 443.907C444.622 444.139 440.689 444.255 436.542 444.37L435.815 417.176H423.588L424.621 444.709H413.013V455.43C436.542 455.43 458.096 454.851 475.198 452.198V441.717ZM398.852 393.38L381.478 395.356V398.092L383.874 398.596C386.774 399.175 387.353 399.836 387.344 405.655L387.41 432.27H377.975V394.373L377.967 394.381L377.975 394.364L377.405 393.959L360.146 395.918V398.638L362.526 399.134C365.4 399.713 365.979 400.423 365.971 406.209L366.061 464.068H331.652V442.297H356.007V431.692H331.652V412.111H357.04V401.398H315.377V404.167L317.021 404.671C319.02 405.258 319.417 405.928 319.417 411.854L319.425 467.3C319.425 471.689 322.977 475.243 327.356 475.243H366.061V499.321H377.975V443.445H387.41V502.892H399.431V393.794L398.852 393.38ZM-5.17019 494.222C-14.7452 494.214 -24.3119 487.304 -24.3119 477.501L-24.2792 421.823C-24.2792 414.476 -17.1493 410.69 -10.251 410.698C10.2294 410.706 18.4582 435.156 18.45 454.977C18.4418 470.119 14.4183 494.23 -5.17019 494.222ZM8.68447 390.215C-4.45167 390.207 -15.588 398.001 -24.0476 406.904H-24.271L-24.2211 311.378L-25.7742 310.262L-25.7824 310.27V310.262L-72.527 315.585L-72.5352 319.619L-66.0747 320.958C-58.2837 322.52 -56.7305 324.306 -56.7387 340.118L-56.8132 477.583C-56.8214 493.387 -58.3745 494.511 -66.1737 496.734L-71.9321 498.206V502.231H-35.3246C-28.3191 503.521 -20.5445 504.455 -12.5227 504.463C26.6535 504.479 50.2655 480.435 50.2901 441.462C50.2983 415.847 36.2865 390.232 8.68447 390.215ZM109.046 477.579L109.137 311.382L107.575 310.266L60.8233 315.589V319.615L67.2756 320.954C75.0666 322.516 76.6279 324.301 76.6197 340.114L76.5453 477.579C76.5371 493.392 74.9758 494.516 67.1848 496.739L61.4264 498.202V502.236H124.14V498.202L118.382 496.739C110.591 494.507 109.038 493.391 109.046 477.579Z" fill="white"/>
<path d="M186.19 496.565C179.457 494.539 176.243 488.953 165.859 473.578L136.96 430.622C136.96 430.622 144.304 423.844 151.343 417.322C162.042 407.428 170.518 401.832 178.4 399.526L185.819 397.443V393.41L132.036 393.377V397.41L139.447 399.501C147.576 401.965 148.906 406.875 134.977 419.868L110.283 442.78L148.212 502.177H153.045L191.743 502.202V498.168L186.19 496.565ZM251.738 496.738C243.947 494.507 242.394 493.391 242.403 477.578L242.485 311.382L240.923 310.266L194.179 315.589L194.171 319.614L200.632 320.954C208.422 322.524 209.976 324.301 209.967 339.965L209.893 488.977C209.884 496.35 215.734 502.235 222.954 502.235H257.496V498.201L251.738 496.738Z" fill="white"/>
</g>
<mask id="mask1_2153_1941" style="mask-type:alpha" maskUnits="userSpaceOnUse" x="304" y="305" width="336" height="199">
<rect x="304" y="305" width="336" height="199" fill="#D9D9D9"/>
</mask>
<g mask="url(#mask1_2153_1941)">
<path d="M857.197 441.717C852.375 442.311 847.537 442.771 842.689 443.097L843.516 417.176H831.289L830.462 443.907C826.621 444.139 822.688 444.255 818.541 444.37L817.814 417.176H805.587L806.62 444.709H795.012V455.43C818.541 455.43 840.095 454.851 857.197 452.198V441.717ZM780.851 393.38L763.477 395.356V398.092L765.873 398.596C768.773 399.175 769.352 399.836 769.343 405.655L769.409 432.27H759.974V394.373L759.966 394.381L759.974 394.364L759.404 393.959L742.145 395.918V398.638L744.525 399.134C747.399 399.713 747.978 400.423 747.97 406.209L748.06 464.068H713.651V442.297H738.006V431.692H713.651V412.111H739.039V401.398H697.376V404.167L699.02 404.671C701.019 405.258 701.416 405.928 701.416 411.854L701.424 467.3C701.424 471.689 704.976 475.243 709.355 475.243H748.06V499.321H759.974V443.445H769.409V502.892H781.43V393.794L780.851 393.38ZM376.829 494.222C367.254 494.214 357.687 487.304 357.687 477.501L357.72 421.823C357.72 414.476 364.85 410.69 371.748 410.698C392.228 410.706 400.457 435.156 400.449 454.977C400.441 470.119 396.417 494.23 376.829 494.222ZM390.683 390.215C377.547 390.207 366.411 398.001 357.951 406.904H357.728L357.778 311.378L356.225 310.262L356.217 310.27V310.262L309.472 315.585L309.464 319.619L315.924 320.958C323.715 322.52 325.268 324.306 325.26 340.118L325.186 477.583C325.178 493.387 323.625 494.511 315.825 496.734L310.067 498.206V502.231H346.674C353.68 503.521 361.455 504.455 369.476 504.463C408.653 504.479 432.265 480.435 432.289 441.462C432.297 415.847 418.286 390.232 390.683 390.215ZM491.045 477.579L491.136 311.382L489.574 310.266L442.822 315.589V319.615L449.275 320.954C457.066 322.516 458.627 324.301 458.619 340.114L458.544 477.579C458.536 493.392 456.975 494.516 449.184 496.739L443.425 498.202V502.236H506.139V498.202L500.381 496.739C492.59 494.507 491.037 493.391 491.045 477.579Z" fill="white"/>
<path d="M568.189 496.565C561.456 494.539 558.242 488.953 547.858 473.578L518.959 430.622C518.959 430.622 526.303 423.844 533.342 417.322C544.041 407.428 552.517 401.832 560.399 399.526L567.818 397.443V393.41L514.035 393.377V397.41L521.446 399.501C529.575 401.965 530.905 406.875 516.976 419.868L492.282 442.78L530.211 502.177H535.044L573.742 502.202V498.168L568.189 496.565ZM633.737 496.738C625.946 494.507 624.393 493.391 624.402 477.578L624.484 311.382L622.922 310.266L576.179 315.589L576.17 319.614L582.631 320.954C590.421 322.524 591.975 324.301 591.966 339.965L591.892 488.977C591.883 496.35 597.733 502.235 604.953 502.235H639.495V498.201L633.737 496.738Z" fill="white"/>
</g>
<mask id="mask2_2153_1941" style="mask-type:alpha" maskUnits="userSpaceOnUse" x="686" y="305" width="336" height="199">
<rect x="686" y="305" width="336" height="199" fill="#D9D9D9"/>
</mask>
<g mask="url(#mask2_2153_1941)">
<path d="M1239.2 441.717C1234.37 442.311 1229.54 442.771 1224.69 443.097L1225.52 417.176H1213.29L1212.46 443.907C1208.62 444.139 1204.69 444.255 1200.54 444.37L1199.81 417.176H1187.59L1188.62 444.709H1177.01V455.43C1200.54 455.43 1222.1 454.851 1239.2 452.198V441.717ZM1162.85 393.38L1145.48 395.356V398.092L1147.87 398.596C1150.77 399.175 1151.35 399.836 1151.34 405.655L1151.41 432.27H1141.97V394.373L1141.97 394.381L1141.97 394.364L1141.4 393.959L1124.15 395.918V398.638L1126.52 399.134C1129.4 399.713 1129.98 400.423 1129.97 406.209L1130.06 464.068H1095.65V442.297H1120.01V431.692H1095.65V412.111H1121.04V401.398H1079.38V404.167L1081.02 404.671C1083.02 405.258 1083.42 405.928 1083.42 411.854L1083.42 467.3C1083.42 471.689 1086.98 475.243 1091.35 475.243H1130.06V499.321H1141.97V443.445H1151.41V502.892H1163.43V393.794L1162.85 393.38ZM758.829 494.222C749.254 494.214 739.687 487.304 739.687 477.501L739.72 421.823C739.72 414.476 746.85 410.69 753.748 410.698C774.228 410.706 782.457 435.156 782.449 454.977C782.441 470.119 778.417 494.23 758.829 494.222ZM772.683 390.215C759.547 390.207 748.411 398.001 739.951 406.904H739.728L739.778 311.378L738.225 310.262L738.217 310.27V310.262L691.472 315.585L691.464 319.619L697.924 320.958C705.715 322.52 707.268 324.306 707.26 340.118L707.186 477.583C707.178 493.387 705.625 494.511 697.825 496.734L692.067 498.206V502.231H728.674C735.68 503.521 743.455 504.455 751.476 504.463C790.653 504.479 814.265 480.435 814.289 441.462C814.297 415.847 800.286 390.232 772.683 390.215ZM873.045 477.579L873.136 311.382L871.574 310.266L824.822 315.589V319.615L831.275 320.954C839.066 322.516 840.627 324.301 840.619 340.114L840.544 477.579C840.536 493.392 838.975 494.516 831.184 496.739L825.425 498.202V502.236H888.139V498.202L882.381 496.739C874.59 494.507 873.037 493.391 873.045 477.579Z" fill="white"/>
<path d="M950.189 496.565C943.456 494.539 940.242 488.953 929.858 473.578L900.959 430.622C900.959 430.622 908.303 423.844 915.342 417.322C926.041 407.428 934.517 401.832 942.399 399.526L949.818 397.443V393.41L896.035 393.377V397.41L903.446 399.501C911.575 401.965 912.905 406.875 898.976 419.868L874.282 442.78L912.211 502.177H917.044L955.742 502.202V498.168L950.189 496.565ZM1015.74 496.738C1007.95 494.507 1006.39 493.391 1006.4 477.578L1006.48 311.382L1004.92 310.266L958.179 315.589L958.17 319.614L964.631 320.954C972.421 322.524 973.975 324.301 973.966 339.965L973.892 488.977C973.883 496.35 979.733 502.235 986.953 502.235H1021.5V498.201L1015.74 496.738Z" fill="white"/>
</g>
<mask id="mask3_2153_1941" style="mask-type:alpha" maskUnits="userSpaceOnUse" x="1068" y="305" width="336" height="199">
<rect x="1068" y="305" width="336" height="199" fill="#D9D9D9"/>
</mask>
<g mask="url(#mask3_2153_1941)">
<path d="M1621.2 441.717C1616.37 442.311 1611.54 442.771 1606.69 443.097L1607.52 417.176H1595.29L1594.46 443.907C1590.62 444.139 1586.69 444.255 1582.54 444.37L1581.81 417.176H1569.59L1570.62 444.709H1559.01V455.43C1582.54 455.43 1604.1 454.851 1621.2 452.198V441.717ZM1544.85 393.38L1527.48 395.356V398.092L1529.87 398.596C1532.77 399.175 1533.35 399.836 1533.34 405.655L1533.41 432.27H1523.97V394.373L1523.97 394.381L1523.97 394.364L1523.4 393.959L1506.15 395.918V398.638L1508.52 399.134C1511.4 399.713 1511.98 400.423 1511.97 406.209L1512.06 464.068H1477.65V442.297H1502.01V431.692H1477.65V412.111H1503.04V401.398H1461.38V404.167L1463.02 404.671C1465.02 405.258 1465.42 405.928 1465.42 411.854L1465.42 467.3C1465.42 471.689 1468.98 475.243 1473.35 475.243H1512.06V499.321H1523.97V443.445H1533.41V502.892H1545.43V393.794L1544.85 393.38ZM1140.83 494.222C1131.25 494.214 1121.69 487.304 1121.69 477.501L1121.72 421.823C1121.72 414.476 1128.85 410.69 1135.75 410.698C1156.23 410.706 1164.46 435.156 1164.45 454.977C1164.44 470.119 1160.42 494.23 1140.83 494.222ZM1154.68 390.215C1141.55 390.207 1130.41 398.001 1121.95 406.904H1121.73L1121.78 311.378L1120.22 310.262L1120.22 310.27V310.262L1073.47 315.585L1073.46 319.619L1079.92 320.958C1087.72 322.52 1089.27 324.306 1089.26 340.118L1089.19 477.583C1089.18 493.387 1087.62 494.511 1079.83 496.734L1074.07 498.206V502.231H1110.67C1117.68 503.521 1125.45 504.455 1133.48 504.463C1172.65 504.479 1196.26 480.435 1196.29 441.462C1196.3 415.847 1182.29 390.232 1154.68 390.215ZM1255.04 477.579L1255.14 311.382L1253.57 310.266L1206.82 315.589V319.615L1213.27 320.954C1221.07 322.516 1222.63 324.301 1222.62 340.114L1222.54 477.579C1222.54 493.392 1220.97 494.516 1213.18 496.739L1207.43 498.202V502.236H1270.14V498.202L1264.38 496.739C1256.59 494.507 1255.04 493.391 1255.04 477.579Z" fill="white"/>
<path d="M1332.19 496.565C1325.46 494.539 1322.24 488.953 1311.86 473.578L1282.96 430.622C1282.96 430.622 1290.3 423.844 1297.34 417.322C1308.04 407.428 1316.52 401.832 1324.4 399.526L1331.82 397.443V393.41L1278.04 393.377V397.41L1285.45 399.501C1293.58 401.965 1294.91 406.875 1280.98 419.868L1256.28 442.78L1294.21 502.177H1299.04L1337.74 502.202V498.168L1332.19 496.565ZM1397.74 496.738C1389.95 494.507 1388.39 493.391 1388.4 477.578L1388.48 311.382L1386.92 310.266L1340.18 315.589L1340.17 319.614L1346.63 320.954C1354.42 322.524 1355.97 324.301 1355.97 339.965L1355.89 488.977C1355.88 496.35 1361.73 502.235 1368.95 502.235H1403.5V498.201L1397.74 496.738Z" fill="white"/>
</g>
<mask id="mask4_2153_1941" style="mask-type:alpha" maskUnits="userSpaceOnUse" x="1450" y="305" width="336" height="199">
<rect x="1450" y="305" width="336" height="199" fill="#D9D9D9"/>
</mask>
<g mask="url(#mask4_2153_1941)">
<path d="M2003.2 441.717C1998.37 442.311 1993.54 442.771 1988.69 443.097L1989.52 417.176H1977.29L1976.46 443.907C1972.62 444.139 1968.69 444.255 1964.54 444.37L1963.81 417.176H1951.59L1952.62 444.709H1941.01V455.43C1964.54 455.43 1986.1 454.851 2003.2 452.198V441.717ZM1926.85 393.38L1909.48 395.356V398.092L1911.87 398.596C1914.77 399.175 1915.35 399.836 1915.34 405.655L1915.41 432.27H1905.97V394.373L1905.97 394.381L1905.97 394.364L1905.4 393.959L1888.15 395.918V398.638L1890.52 399.134C1893.4 399.713 1893.98 400.423 1893.97 406.209L1894.06 464.068H1859.65V442.297H1884.01V431.692H1859.65V412.111H1885.04V401.398H1843.38V404.167L1845.02 404.671C1847.02 405.258 1847.42 405.928 1847.42 411.854L1847.42 467.3C1847.42 471.689 1850.98 475.243 1855.35 475.243H1894.06V499.321H1905.97V443.445H1915.41V502.892H1927.43V393.794L1926.85 393.38ZM1522.83 494.222C1513.25 494.214 1503.69 487.304 1503.69 477.501L1503.72 421.823C1503.72 414.476 1510.85 410.69 1517.75 410.698C1538.23 410.706 1546.46 435.156 1546.45 454.977C1546.44 470.119 1542.42 494.23 1522.83 494.222ZM1536.68 390.215C1523.55 390.207 1512.41 398.001 1503.95 406.904H1503.73L1503.78 311.378L1502.22 310.262L1502.22 310.27V310.262L1455.47 315.585L1455.46 319.619L1461.92 320.958C1469.72 322.52 1471.27 324.306 1471.26 340.118L1471.19 477.583C1471.18 493.387 1469.62 494.511 1461.83 496.734L1456.07 498.206V502.231H1492.67C1499.68 503.521 1507.45 504.455 1515.48 504.463C1554.65 504.479 1578.26 480.435 1578.29 441.462C1578.3 415.847 1564.29 390.232 1536.68 390.215ZM1637.04 477.579L1637.14 311.382L1635.57 310.266L1588.82 315.589V319.615L1595.27 320.954C1603.07 322.516 1604.63 324.301 1604.62 340.114L1604.54 477.579C1604.54 493.392 1602.97 494.516 1595.18 496.739L1589.43 498.202V502.236H1652.14V498.202L1646.38 496.739C1638.59 494.507 1637.04 493.391 1637.04 477.579Z" fill="white"/>
<path d="M1714.19 496.565C1707.46 494.539 1704.24 488.953 1693.86 473.578L1664.96 430.622C1664.96 430.622 1672.3 423.844 1679.34 417.322C1690.04 407.428 1698.52 401.832 1706.4 399.526L1713.82 397.443V393.41L1660.04 393.377V397.41L1667.45 399.501C1675.58 401.965 1676.91 406.875 1662.98 419.868L1638.28 442.78L1676.21 502.177H1681.04L1719.74 502.202V498.168L1714.19 496.565ZM1779.74 496.738C1771.95 494.507 1770.39 493.391 1770.4 477.578L1770.48 311.382L1768.92 310.266L1722.18 315.589L1722.17 319.614L1728.63 320.954C1736.42 322.524 1737.97 324.301 1737.97 339.965L1737.89 488.977C1737.88 496.35 1743.73 502.235 1750.95 502.235H1785.5V498.201L1779.74 496.738Z" fill="white"/>
</g>
<mask id="mask5_2153_1941" style="mask-type:alpha" maskUnits="userSpaceOnUse" x="1832" y="305" width="336" height="199">
<rect x="1832" y="305" width="336" height="199" fill="#D9D9D9"/>
</mask>
<g mask="url(#mask5_2153_1941)">
<path d="M2385.2 441.717C2380.37 442.311 2375.54 442.771 2370.69 443.097L2371.52 417.176H2359.29L2358.46 443.907C2354.62 444.139 2350.69 444.255 2346.54 444.37L2345.81 417.176H2333.59L2334.62 444.709H2323.01V455.43C2346.54 455.43 2368.1 454.851 2385.2 452.198V441.717ZM2308.85 393.38L2291.48 395.356V398.092L2293.87 398.596C2296.77 399.175 2297.35 399.836 2297.34 405.655L2297.41 432.27H2287.97V394.373L2287.97 394.381L2287.97 394.364L2287.4 393.959L2270.15 395.918V398.638L2272.52 399.134C2275.4 399.713 2275.98 400.423 2275.97 406.209L2276.06 464.068H2241.65V442.297H2266.01V431.692H2241.65V412.111H2267.04V401.398H2225.38V404.167L2227.02 404.671C2229.02 405.258 2229.42 405.928 2229.42 411.854L2229.42 467.3C2229.42 471.689 2232.98 475.243 2237.35 475.243H2276.06V499.321H2287.97V443.445H2297.41V502.892H2309.43V393.794L2308.85 393.38ZM1904.83 494.222C1895.25 494.214 1885.69 487.304 1885.69 477.501L1885.72 421.823C1885.72 414.476 1892.85 410.69 1899.75 410.698C1920.23 410.706 1928.46 435.156 1928.45 454.977C1928.44 470.119 1924.42 494.23 1904.83 494.222ZM1918.68 390.215C1905.55 390.207 1894.41 398.001 1885.95 406.904H1885.73L1885.78 311.378L1884.22 310.262L1884.22 310.27V310.262L1837.47 315.585L1837.46 319.619L1843.92 320.958C1851.72 322.52 1853.27 324.306 1853.26 340.118L1853.19 477.583C1853.18 493.387 1851.62 494.511 1843.83 496.734L1838.07 498.206V502.231H1874.67C1881.68 503.521 1889.45 504.455 1897.48 504.463C1936.65 504.479 1960.26 480.435 1960.29 441.462C1960.3 415.847 1946.29 390.232 1918.68 390.215ZM2019.04 477.579L2019.14 311.382L2017.57 310.266L1970.82 315.589V319.615L1977.27 320.954C1985.07 322.516 1986.63 324.301 1986.62 340.114L1986.54 477.579C1986.54 493.392 1984.97 494.516 1977.18 496.739L1971.43 498.202V502.236H2034.14V498.202L2028.38 496.739C2020.59 494.507 2019.04 493.391 2019.04 477.579Z" fill="white"/>
</g>
</g>
</g>
<defs>
<linearGradient id="paint0_linear_2153_1941" x1="898" y1="-1.5329e-05" x2="898" y2="551" gradientUnits="userSpaceOnUse">
<stop stop-color="#007899"/>
<stop offset="1" stop-color="#00556C"/>
</linearGradient>
<clipPath id="clip0_2153_1941">
<rect width="1920" height="551" fill="white"/>
</clipPath>
</defs>
</svg>
