<svg width="1920" height="551" viewBox="0 0 1920 551" fill="none" xmlns="http://www.w3.org/2000/svg">
<g clip-path="url(#clip0_2690_2544)">
<rect width="1920" height="551" fill="url(#paint0_linear_2690_2544)"/>
<path opacity="0.05" d="M63.4062 451.297C63.4062 497.391 34.6953 523.953 -2.60938 523.953C-40.3047 523.953 -68.8203 497.195 -68.8203 451.297C-68.8203 405.203 -40.3047 378.641 -2.60938 378.641C34.6953 378.641 63.4062 405.203 63.4062 451.297ZM33.5234 451.297C33.5234 421.023 19.2656 404.617 -2.60938 404.617C-24.4844 404.617 -38.9375 421.023 -38.9375 451.297C-38.9375 481.57 -24.4844 497.977 -2.60938 497.977C19.2656 497.977 33.5234 481.57 33.5234 451.297ZM202.469 380.594V522H177.078L114.969 432.156H113.797V522H84.5V380.594H110.281L172 470.438H173.367V380.594H202.469ZM226.297 522V380.594H321.219V404.812H255.594V439.188H316.336V463.406H255.594V497.781H321.414V522H226.297ZM420.828 421.023C419.656 409.891 410.672 403.25 396.414 403.25C381.57 403.25 373.367 410.086 373.172 419.461C372.977 429.617 383.719 434.305 395.828 437.039L408.523 440.164C432.742 445.633 450.906 457.938 450.906 481.57C450.906 507.547 430.594 523.953 396.219 523.953C362.039 523.953 340.164 508.133 339.383 477.859H367.898C368.875 492.117 380.203 499.344 395.828 499.344C411.258 499.344 421.219 492.117 421.219 481.57C421.219 472 412.43 467.508 397 463.602L381.57 459.891C357.742 454.031 343.094 442.117 343.094 421.414C343.094 395.633 365.75 378.641 396.609 378.641C427.859 378.641 448.562 396.023 448.953 421.023H420.828ZM588.016 380.594V522H562.625L500.516 432.156H499.344V522H470.047V380.594H495.828L557.547 470.438H558.914V380.594H588.016ZM706.375 429.812C704.031 414.188 691.922 404.617 675.516 404.617C653.445 404.617 638.992 421.609 638.992 451.297C638.992 481.766 653.641 497.977 675.32 497.977C691.531 497.977 703.445 488.992 706.375 473.758L736.062 473.953C732.742 500.125 710.867 523.953 674.93 523.953C637.039 523.953 609.109 497.391 609.109 451.297C609.109 405.203 637.625 378.641 674.93 378.641C707.547 378.641 732.156 397.391 736.062 429.812H706.375ZM932.156 451.297C932.156 497.391 903.445 523.953 866.141 523.953C828.445 523.953 799.93 497.195 799.93 451.297C799.93 405.203 828.445 378.641 866.141 378.641C903.445 378.641 932.156 405.203 932.156 451.297ZM902.273 451.297C902.273 421.023 888.016 404.617 866.141 404.617C844.266 404.617 829.812 421.023 829.812 451.297C829.812 481.57 844.266 497.977 866.141 497.977C888.016 497.977 902.273 481.57 902.273 451.297ZM1071.22 380.594V522H1045.83L983.719 432.156H982.547V522H953.25V380.594H979.031L1040.75 470.438H1042.12V380.594H1071.22ZM1095.05 522V380.594H1189.97V404.812H1124.34V439.188H1185.09V463.406H1124.34V497.781H1190.16V522H1095.05ZM1289.58 421.023C1288.41 409.891 1279.42 403.25 1265.16 403.25C1250.32 403.25 1242.12 410.086 1241.92 419.461C1241.73 429.617 1252.47 434.305 1264.58 437.039L1277.27 440.164C1301.49 445.633 1319.66 457.938 1319.66 481.57C1319.66 507.547 1299.34 523.953 1264.97 523.953C1230.79 523.953 1208.91 508.133 1208.13 477.859H1236.65C1237.62 492.117 1248.95 499.344 1264.58 499.344C1280.01 499.344 1289.97 492.117 1289.97 481.57C1289.97 472 1281.18 467.508 1265.75 463.602L1250.32 459.891C1226.49 454.031 1211.84 442.117 1211.84 421.414C1211.84 395.633 1234.5 378.641 1265.36 378.641C1296.61 378.641 1317.31 396.023 1317.7 421.023H1289.58ZM1456.77 380.594V522H1431.38L1369.27 432.156H1368.09V522H1338.8V380.594H1364.58L1426.3 470.438H1427.66V380.594H1456.77ZM1575.12 429.812C1572.78 414.188 1560.67 404.617 1544.27 404.617C1522.2 404.617 1507.74 421.609 1507.74 451.297C1507.74 481.766 1522.39 497.977 1544.07 497.977C1560.28 497.977 1572.2 488.992 1575.12 473.758L1604.81 473.953C1601.49 500.125 1579.62 523.953 1543.68 523.953C1505.79 523.953 1477.86 497.391 1477.86 451.297C1477.86 405.203 1506.38 378.641 1543.68 378.641C1576.3 378.641 1600.91 397.391 1604.81 429.812H1575.12ZM1800.91 451.297C1800.91 497.391 1772.2 523.953 1734.89 523.953C1697.2 523.953 1668.68 497.195 1668.68 451.297C1668.68 405.203 1697.2 378.641 1734.89 378.641C1772.2 378.641 1800.91 405.203 1800.91 451.297ZM1771.02 451.297C1771.02 421.023 1756.77 404.617 1734.89 404.617C1713.02 404.617 1698.56 421.023 1698.56 451.297C1698.56 481.57 1713.02 497.977 1734.89 497.977C1756.77 497.977 1771.02 481.57 1771.02 451.297ZM1939.97 380.594V522H1914.58L1852.47 432.156H1851.3V522H1822V380.594H1847.78L1909.5 470.438H1910.87V380.594H1939.97ZM1963.8 522V380.594H2058.72V404.812H1993.09V439.188H2053.84V463.406H1993.09V497.781H2058.91V522H1963.8ZM2158.33 421.023C2157.16 409.891 2148.17 403.25 2133.91 403.25C2119.07 403.25 2110.87 410.086 2110.67 419.461C2110.48 429.617 2121.22 434.305 2133.33 437.039L2146.02 440.164C2170.24 445.633 2188.41 457.938 2188.41 481.57C2188.41 507.547 2168.09 523.953 2133.72 523.953C2099.54 523.953 2077.66 508.133 2076.88 477.859H2105.4C2106.38 492.117 2117.7 499.344 2133.33 499.344C2148.76 499.344 2158.72 492.117 2158.72 481.57C2158.72 472 2149.93 467.508 2134.5 463.602L2119.07 459.891C2095.24 454.031 2080.59 442.117 2080.59 421.414C2080.59 395.633 2103.25 378.641 2134.11 378.641C2165.36 378.641 2186.06 396.023 2186.45 421.023H2158.33ZM2325.52 380.594V522H2300.12L2238.02 432.156H2236.84V522H2207.55V380.594H2233.33L2295.05 470.438H2296.41V380.594H2325.52ZM2443.88 429.812C2441.53 414.188 2429.42 404.617 2413.02 404.617C2390.95 404.617 2376.49 421.609 2376.49 451.297C2376.49 481.766 2391.14 497.977 2412.82 497.977C2429.03 497.977 2440.95 488.992 2443.88 473.758L2473.56 473.953C2470.24 500.125 2448.37 523.953 2412.43 523.953C2374.54 523.953 2346.61 497.391 2346.61 451.297C2346.61 405.203 2375.12 378.641 2412.43 378.641C2445.05 378.641 2469.66 397.391 2473.56 429.812H2443.88Z" fill="white"/>
</g>
<defs>
<linearGradient id="paint0_linear_2690_2544" x1="898" y1="-1.5329e-05" x2="898" y2="551" gradientUnits="userSpaceOnUse">
<stop stop-color="#007899"/>
<stop offset="1" stop-color="#00556C"/>
</linearGradient>
<clipPath id="clip0_2690_2544">
<rect width="1920" height="551" fill="white"/>
</clipPath>
</defs>
</svg>
