<svg width="41" height="42" viewBox="0 0 41 42" fill="none" xmlns="http://www.w3.org/2000/svg">
<rect width="41" height="41" rx="20.5" transform="matrix(-1 0 0 1 41 0.5)" fill="#013EB7"/>
<mask id="mask0_2398_1016" style="mask-type:alpha" maskUnits="userSpaceOnUse" x="1" y="1" width="40" height="40">
<rect width="40" height="40" transform="matrix(-1 0 0 1 41 1)" fill="#D9D9D9"/>
</mask>
<g mask="url(#mask0_2398_1016)">
<path d="M16.6284 20.9741L24.0514 13.5353C24.248 13.3492 24.3421 13.1297 24.3334 12.8766C24.3248 12.6233 24.2222 12.4037 24.0255 12.2178C23.8291 12.0212 23.6027 11.9229 23.3464 11.9229C23.09 11.9229 22.8634 12.0212 22.6668 12.2178L14.7534 20.1312C14.6251 20.2595 14.5305 20.3905 14.4697 20.5241C14.4089 20.6574 14.3784 20.8074 14.3784 20.9741C14.3784 21.1302 14.4089 21.2777 14.4697 21.4166C14.5305 21.5555 14.6251 21.6891 14.7534 21.8174L22.6926 29.7562C22.8784 29.9423 23.0979 30.0337 23.3509 30.0304C23.6043 30.027 23.8291 29.9272 24.0255 29.7308C24.2222 29.5341 24.3205 29.3076 24.3205 29.0512C24.3205 28.7948 24.2222 28.5683 24.0255 28.3716L16.6284 20.9741Z" fill="white"/>
</g>
</svg>
