<svg width="41" height="42" viewBox="0 0 41 42" fill="none" xmlns="http://www.w3.org/2000/svg">
<rect y="0.5" width="41" height="41" rx="20.5" fill="#EDEBEB"/>
<mask id="mask0_2398_1020" style="mask-type:alpha" maskUnits="userSpaceOnUse" x="0" y="1" width="40" height="40">
<rect y="1" width="40" height="40" fill="#D9D9D9"/>
</mask>
<g mask="url(#mask0_2398_1020)">
<path d="M24.3716 20.9741L16.9486 13.5353C16.752 13.3492 16.6579 13.1297 16.6666 12.8766C16.6752 12.6233 16.7778 12.4037 16.9745 12.2178C17.1709 12.0212 17.3973 11.9229 17.6536 11.9229C17.91 11.9229 18.1366 12.0212 18.3332 12.2178L26.2466 20.1312C26.3749 20.2595 26.4695 20.3905 26.5303 20.5241C26.5911 20.6574 26.6216 20.8074 26.6216 20.9741C26.6216 21.1302 26.5911 21.2777 26.5303 21.4166C26.4695 21.5555 26.3749 21.6891 26.2466 21.8174L18.3074 29.7562C18.1216 29.9423 17.9021 30.0337 17.6491 30.0304C17.3957 30.027 17.1709 29.9272 16.9745 29.7308C16.7778 29.5341 16.6795 29.3076 16.6795 29.0512C16.6795 28.7948 16.7778 28.5683 16.9745 28.3716L24.3716 20.9741Z" fill="#C0C0C0"/>
</g>
</svg>
