<svg width="14" height="14" viewBox="0 0 14 14" fill="none" xmlns="http://www.w3.org/2000/svg">
<path d="M7.91823 0.380344C7.41111 -0.126781 6.58889 -0.126782 6.08177 0.380343L3.54043 2.92168L7 6.38126L10.4596 2.92168L7.91823 0.380344Z" fill="#3766DE"/>
<path d="M11.0783 3.5404L7.61872 6.99997L11.0783 10.4596L13.6197 7.91823C14.1268 7.41111 14.1268 6.58889 13.6197 6.08177L11.0783 3.5404Z" fill="#3766DE"/>
<path d="M10.4596 11.0783L7 7.61869L3.5404 11.0783L6.08177 13.6197C6.58889 14.1268 7.41111 14.1268 7.91823 13.6197L10.4596 11.0783Z" fill="#3766DE"/>
<path d="M2.92168 10.4596L6.38128 6.99997L2.92171 3.5404L0.380344 6.08177C-0.126781 6.58889 -0.126782 7.41111 0.380343 7.91823L2.92168 10.4596Z" fill="#3766DE"/>
</svg>
